<svg xmlns="http://www.w3.org/2000/svg" viewBox="0 0 1600 900"><defs><linearGradient id="sky" y1="0" y2="1"><stop stop-color="#f26d45"/><stop offset=".45" stop-color="#132139"/><stop offset="1" stop-color="#050914"/></linearGradient><filter id="glow"><feGaussianBlur stdDeviation="5" result="b"/><feMerge><feMergeNode in="b"/><feMergeNode in="SourceGraphic"/></feMerge></filter></defs><rect width="1600" height="900" fill="url(#sky)"/><path d="M140 700h1300l-90-280H280z" fill="#0b1424"/><path d="M250 420h760l80-120H380z" fill="#111a2b"/><path d="M1050 420h300l-80-120h-220z" fill="#0f1728"/><text x="380" y="385" fill="#fff" font-size="66" font-family="Arial" font-weight="800" filter="url(#glow)">AL HAYAT CAR SERVICES</text><text x="305" y="500" fill="#d9e8ff" font-size="38" font-family="Arial">Mobil 1 Center • Ajman</text><g fill="#173f7e" stroke="#70b8ff" stroke-width="4"><rect x="330" y="540" width="90" height="90" rx="18"/><rect x="460" y="540" width="90" height="90" rx="18"/><rect x="590" y="540" width="90" height="90" rx="18"/><rect x="720" y="540" width="90" height="90" rx="18"/><rect x="850" y="540" width="90" height="90" rx="18"/></g><path d="M210 720h1180v90H210z" fill="#e7b65c" opacity=".45"/><g><ellipse cx="585" cy="720" rx="145" ry="38" fill="#05070b"/><path d="M430 705c38-78 260-78 318 0z" fill="#d7dbe3"/><circle cx="500" cy="725" r="33" fill="#05070b"/><circle cx="680" cy="725" r="33" fill="#05070b"/></g><g><ellipse cx="1040" cy="724" rx="150" ry="40" fill="#05070b"/><path d="M880 710c42-84 270-84 328 0z" fill="#b51018"/><circle cx="955" cy="729" r="34" fill="#05070b"/><circle cx="1135" cy="729" r="34" fill="#05070b"/></g></svg>