<svg xmlns="http://www.w3.org/2000/svg" viewBox="0 0 300 300"><defs><linearGradient id="g" x1="0" y1="0" x2="1" y2="1"><stop stop-color="#e9fbff"/><stop offset="1" stop-color="#0e7bc7"/></linearGradient></defs><rect width="300" height="300" rx="54" fill="#07111f"/><circle cx="150" cy="122" r="92" fill="url(#g)" opacity=".9"/><path d="M72 214h156a22 22 0 0 1 22 22v18H50v-18a22 22 0 0 1 22-22z" fill="#fff"/><text x="150" y="250" font-size="28" text-anchor="middle" font-family="Georgia,serif" font-weight="700" fill="#102033">CAR SERVICES</text><circle cx="150" cy="112" r="44" fill="#ffd1a6"/><path d="M104 88c14-38 78-38 92 0-16-10-76-10-92 0z" fill="#fff" stroke="#111" stroke-width="8"/><path d="M111 94c18-19 65-19 78 0" fill="none" stroke="#1497d4" stroke-width="16"/><rect x="103" y="150" width="94" height="68" rx="12" fill="#1497d4"/><path d="M75 175l46-38 24 29-48 40zM194 142l44 40-24 28-45-43z" fill="#f8f8f8" stroke="#111" stroke-width="6"/><path d="M121 119q29 24 58 0" fill="none" stroke="#111" stroke-width="7" stroke-linecap="round"/></svg>